<svg xmlns="http://www.w3.org/2000/svg" viewBox="0 0 61.51 59.45"><defs><style>.cls-1{fill:#96e4f4;}.cls-2,.cls-3{fill:none;stroke:#0b3b7a;stroke-linejoin:round;stroke-width:2.66px;}.cls-3{stroke-linecap:round;}</style></defs><g id="Layer_2" data-name="Layer 2"><g id="Layer_1-2" data-name="Layer 1"><path class="cls-1" d="M5.17,31.56V57.5a2,2,0,0,0,2,2H59.55a2,2,0,0,0,2-2V32.87a2,2,0,0,0-2.73-1.79,49.41,49.41,0,0,1-21.64,3.79C23.41,34.18,18.45,29,7,29.6A2,2,0,0,0,5.17,31.56Z"/><path class="cls-2" d="M1.33,25v29.7H57.67V25a47.33,47.33,0,0,1-24.38,5.12C18.85,29.44,14.11,23.7,1.33,25Z"/><line class="cls-3" x1="28.55" y1="9.61" x2="28.55" y2="44.5"/><line class="cls-3" x1="46.73" y1="13.41" x2="42.58" y2="42.25"/><circle class="cls-3" cx="47.59" cy="8.91" r="3.79"/><line class="cls-3" x1="10.78" y1="16.35" x2="15.41" y2="40.25"/><circle class="cls-3" cx="9.76" cy="11.85" r="3.79"/><circle class="cls-3" cx="28.55" cy="5.12" r="3.79"/></g></g></svg>