<svg xmlns="http://www.w3.org/2000/svg" viewBox="0 0 51.9 63.47"><defs><style>.cls-1{fill:#96e4f4;}.cls-2,.cls-4{fill:#fff;}.cls-3{fill:#0b3b7a;}.cls-4{stroke:#0b3b7a;stroke-miterlimit:10;stroke-width:2.11px;}</style></defs><g id="Layer_2" data-name="Layer 2"><g id="Layer_1-2" data-name="Layer 1"><rect class="cls-1" x="3.69" y="3.53" width="6.37" height="58.87" rx="1.78"/><rect class="cls-1" x="23.26" y="13.28" width="28.64" height="50.19" rx="8.14"/><rect class="cls-2" x="29.66" y="37" width="8.98" height="4.97"/><rect class="cls-2" x="6.2" y="4.32" width="6.53" height="16.2"/><path class="cls-3" d="M6.15,61.53H1.23A1.22,1.22,0,0,1,0,60.31V1.42A1.23,1.23,0,0,1,1.23.2H6.15A1.23,1.23,0,0,1,7.38,1.42V60.31A1.22,1.22,0,0,1,6.15,61.53Zm-3.7-2.45H4.92V2.65H2.45Z"/><path class="cls-3" d="M11.82,21.75H6.15a1.23,1.23,0,0,1-1.23-1.22V4A1.23,1.23,0,0,1,6.15,2.76h5.67a2.14,2.14,0,0,1,2,1.49A2.18,2.18,0,0,1,13,6.69l-.07,0c.13.1.35.23.5.32A2.87,2.87,0,0,1,15.25,9.5a2.87,2.87,0,0,1-1.79,2.43c-.15.1-.37.22-.5.32.13.1.35.23.5.32A2.87,2.87,0,0,1,15.25,15a2.89,2.89,0,0,1-1.79,2.44c-.15.09-.37.22-.5.32l.07.05a2.18,2.18,0,0,1,.84,2.44A2.15,2.15,0,0,1,11.82,21.75Zm-.19-1.92ZM7.38,19.3H11a2.27,2.27,0,0,1-.58-1.53,2.87,2.87,0,0,1,1.79-2.44,4.78,4.78,0,0,0,.5-.32,4.78,4.78,0,0,0-.5-.32,2.89,2.89,0,0,1-1.79-2.44,2.89,2.89,0,0,1,1.79-2.44l.5-.31a4.78,4.78,0,0,0-.5-.32,2.89,2.89,0,0,1-1.79-2.44A2.27,2.27,0,0,1,11,5.21H7.38Z"/><path class="cls-3" d="M44,61.53H24.27a5.17,5.17,0,0,1-5.17-5.16V18.16a9.12,9.12,0,0,1,9.11-9.1H40a9.12,9.12,0,0,1,9.11,9.1V56.37A5.17,5.17,0,0,1,44,61.53Zm-15.75-50a6.66,6.66,0,0,0-6.65,6.65V56.37a2.71,2.71,0,0,0,2.71,2.71H44a2.71,2.71,0,0,0,2.71-2.71V18.16A6.66,6.66,0,0,0,40,11.51Z"/><path class="cls-3" d="M37.47,43.48h-.16a7.79,7.79,0,0,1-3.2-.88,7.75,7.75,0,0,1-3.19.88,3.25,3.25,0,0,1-3.06-1.42c-1-1.79.3-4.34,3.08-6l0,0h0a6.33,6.33,0,0,1,6.26,0h0l0,0c2.78,1.61,4.1,4.17,3.07,6A3.18,3.18,0,0,1,37.47,43.48ZM34.12,40a1.29,1.29,0,0,1,.65.19l.14.09a5.51,5.51,0,0,0,2.47.79c.56,0,.83-.13.87-.2h0c.15-.26-.38-1.55-2.19-2.6h0a3.86,3.86,0,0,0-3.82,0h0l0,0h0c-1.82,1.05-2.34,2.34-2.2,2.6.05.07.31.21.87.2a5.49,5.49,0,0,0,2.48-.8l.13-.08A1.3,1.3,0,0,1,34.12,40Zm-1.94-1.73h0l0,0Zm.06,0,0,0Z"/><path class="cls-3" d="M34.12,48.34A28.22,28.22,0,0,1,19.69,44.7a1.24,1.24,0,0,1-.59-1.05V26.94a1.25,1.25,0,0,1,.59-1.05,28.32,28.32,0,0,1,14.43-3.64,28.31,28.31,0,0,1,14.42,3.64,1.25,1.25,0,0,1,.59,1.05V43.65a1.24,1.24,0,0,1-.59,1.05A28.21,28.21,0,0,1,34.12,48.34Zm-12.56-5.4a26.1,26.1,0,0,0,12.56,3,26.09,26.09,0,0,0,12.55-3V27.65a26.2,26.2,0,0,0-12.55-2.94,26.21,26.21,0,0,0-12.56,2.94Z"/><path class="cls-3" d="M39,11.51H29.19A1.22,1.22,0,0,1,28,10.08L29.56,1a1.22,1.22,0,0,1,1.21-1h6.69a1.22,1.22,0,0,1,1.21,1l1.58,9.06A1.22,1.22,0,0,1,39,11.51ZM30.65,9.06h6.93L36.43,2.45H31.8Z"/><path class="cls-3" d="M47.9,56.32H20.33a1.23,1.23,0,0,1,0-2.46H47.9a1.23,1.23,0,1,1,0,2.46Z"/><ellipse class="cls-4" cx="34.12" cy="30.37" rx="2.13" ry="2.71"/><ellipse class="cls-4" cx="27.51" cy="33.08" rx="2.13" ry="2.71" transform="translate(-15 26.47) rotate(-41.42)"/><ellipse class="cls-4" cx="40.72" cy="33.08" rx="2.71" ry="2.13" transform="translate(-11.03 41.73) rotate(-48.58)"/></g></g></svg>