<svg xmlns="http://www.w3.org/2000/svg" viewBox="0 0 69.78 51.83"><defs><style>.cls-1{fill:#96e4f4;}.cls-2{fill:#0b3b7a;stroke:#0b3b7a;stroke-miterlimit:10;stroke-width:0.26px;}</style></defs><g id="Layer_2" data-name="Layer 2"><g id="Layer_1-2" data-name="Layer 1"><path class="cls-1" d="M61.14,24.24,59.49,23a1.14,1.14,0,0,0-.94-.19,10.88,10.88,0,0,1-8.73-1.13L48,20l-6.95-7.6a1.15,1.15,0,0,0-.65-.36l-5.17-.94a1.12,1.12,0,0,0-1,.36l-.32.35-.33.36a1.38,1.38,0,0,0-.33,1.13L34.11,19a1.38,1.38,0,0,0,.33.71l7,7.59L43,29.2c1.38,2.33,1.82,6,1,9.55a1.48,1.48,0,0,0,.17,1l1.1,1.8a1.13,1.13,0,0,0,1.1.57C48,42,51.47,41,56,36s5.48-8.73,5.64-10.53A1.36,1.36,0,0,0,61.14,24.24Z"/><path class="cls-2" d="M38.26,30.39a1.12,1.12,0,0,1-.8-.32l-7.34-7.34a3.37,3.37,0,0,1-.94-1.83L28.37,16a3.35,3.35,0,0,1,.94-2.93l.3-.31h0l.31-.3a3.35,3.35,0,0,1,2.93-.94l4.88.81a3.37,3.37,0,0,1,1.83.94l7.34,7.34a1.12,1.12,0,0,1,0,1.59l-7.85,7.85A1.11,1.11,0,0,1,38.26,30.39Zm-7.06-16-.31.3a1.14,1.14,0,0,0-.31,1l.81,4.88a1.13,1.13,0,0,0,.32.61l6.55,6.55,6.26-6.27L38,14.88a1.07,1.07,0,0,0-.61-.32l-4.88-.81a1.15,1.15,0,0,0-1,.31Z"/><path class="cls-2" d="M42.85,42.78a3.37,3.37,0,0,1-2.8-1.5l-1-1.55a3.36,3.36,0,0,1-.47-2.65c.72-3,0-5.92-1.09-7a1.14,1.14,0,0,1,0-1.59,1.12,1.12,0,0,1,1.59,0c1.84,1.84,2.53,5.59,1.68,9.12a1.1,1.1,0,0,0,.15.88l1,1.56a1.13,1.13,0,0,0,1,.49c1.55-.15,4.8-1,9.08-5.32s5.17-7.53,5.32-9.08a1.13,1.13,0,0,0-.49-1l-1.55-1a1.17,1.17,0,0,0-.89-.16c-3.53.85-7.28.16-9.12-1.67a1.14,1.14,0,0,1,0-1.59,1.12,1.12,0,0,1,1.59,0c1.1,1.1,4,1.8,7,1.08a3.4,3.4,0,0,1,2.65.48l1.55,1a3.37,3.37,0,0,1,1.49,3.12c-.22,2.26-1.43,5.91-6,10.45s-8.19,5.76-10.45,6Z"/><path class="cls-2" d="M18.07,49.46A10,10,0,0,1,11,46.57l0,0L.45,35.75a1.12,1.12,0,1,1,1.6-1.57L12.59,45a7.85,7.85,0,0,0,11.1-11.09L7.48,17.25A10.1,10.1,0,0,1,7.57,3.07,10.14,10.14,0,0,1,21.81,3v0l9.45,9.69a1.12,1.12,0,0,1,0,1.58,1.13,1.13,0,0,1-1.59,0L20.23,4.62A7.85,7.85,0,0,0,9.08,15.68L25.3,32.33a10.09,10.09,0,0,1-7.18,17.13Z"/><path class="cls-2" d="M56.2,45a1.12,1.12,0,0,1,0-2.24,4.49,4.49,0,0,0,4.48-4.49,1.13,1.13,0,0,1,2.25,0A6.74,6.74,0,0,1,56.2,45Z"/><path class="cls-2" d="M56.2,51.7a1.12,1.12,0,0,1,0-2.24A11.23,11.23,0,0,0,67.41,38.24a1.13,1.13,0,0,1,2.25,0A13.48,13.48,0,0,1,56.2,51.7Z"/></g></g></svg>