<svg xmlns="http://www.w3.org/2000/svg" viewBox="0 0 61.23 61.27"><defs><style>.cls-1{fill:#96e4f4;}.cls-2{fill:#fff;}.cls-3,.cls-4{fill:#0b3b7a;}.cls-3{stroke:#0b3b7a;stroke-miterlimit:10;stroke-width:0.52px;}</style></defs><g id="Layer_2" data-name="Layer 2"><g id="Layer_1-2" data-name="Layer 1"><rect class="cls-1" x="5.04" y="12.33" width="56.19" height="48.94" rx="2.33"/><polygon class="cls-2" points="6.88 22.45 6.88 16.27 25.61 23.27 31.2 23.85 33.13 23.85 35.13 25.58 36.36 27.06 35.13 29.68 33.93 32.06 32.21 34.95 29.88 34.95 27.92 33.86 26.09 32.06 25.51 30.73 23.47 28.47 18.03 26.51 6.88 22.45"/><polygon class="cls-2" points="28.39 53.48 38.63 53.48 39.64 45.03 43.68 37.84 44.26 34.15 42.02 28.47 40.18 29.39 37.77 31.53 37.36 34.95 35.81 36.3 33.13 38.23 29.33 38.52 28.39 53.48"/><polygon class="cls-2" points="46.45 26.71 47.13 29.7 48.36 33.08 49.51 30.45 50.23 27.44 46.45 26.71"/><circle class="cls-3" cx="29.33" cy="6.82" r="1.41"/><path class="cls-3" d="M37.77,13.39H20.89A1.88,1.88,0,0,1,19,11.51V6.82A1.88,1.88,0,0,1,20.89,5H23A6.56,6.56,0,0,1,35.61,5h2.16a1.87,1.87,0,0,1,1.87,1.87v4.69A1.88,1.88,0,0,1,37.77,13.39ZM20.89,6.82v4.69H37.77V6.82h-2.9A.94.94,0,0,1,33.94,6a4.68,4.68,0,0,0-9.23,0,.93.93,0,0,1-.92.78Z"/><path class="cls-3" d="M54.64,58.39H4A3.75,3.75,0,0,1,.26,54.64V11.51A3.75,3.75,0,0,1,4,7.76H20a.94.94,0,0,1,0,1.88H4a1.87,1.87,0,0,0-1.87,1.87V54.64A1.88,1.88,0,0,0,4,56.52H54.64a1.88,1.88,0,0,0,1.88-1.88V11.51a1.88,1.88,0,0,0-1.88-1.87H38.7a.94.94,0,0,1,0-1.88H54.64a3.75,3.75,0,0,1,3.75,3.75V54.64A3.75,3.75,0,0,1,54.64,58.39Z"/><path class="cls-3" d="M30.26,35.89c-2.59,0-4.33-2.83-5.48-4.7A11.37,11.37,0,0,0,24,30c-.93-.66-9.19-3.77-16.55-6.36a.94.94,0,0,1,.62-1.77s4,1.43,8.11,2.93c8.39,3.12,8.87,3.6,9.12,3.85a9.28,9.28,0,0,1,1.08,1.55c.93,1.51,2.34,3.81,3.88,3.81,2.12,0,2.29-.8,2.55-2a4.47,4.47,0,0,1,.37-1.23,5.75,5.75,0,0,1,1.79-2c.68-.53.92-.74.92-1.31S35,26,34.29,25.3s-3.69-.66-5.9-.66c-2.92,0-19.15-6.8-21-7.58a.93.93,0,1,1,.73-1.72c6.82,2.87,18.35,7.42,20.26,7.42,3.23,0,6,0,7.23,1.22,1.05,1.05,2.15,2.15,2.15,3.47a3.34,3.34,0,0,1-1.64,2.79,4.15,4.15,0,0,0-1.28,1.38,4.4,4.4,0,0,0-.21.78C34.38,33.62,33.9,35.89,30.26,35.89Z"/><path class="cls-3" d="M38.7,53.7a.93.93,0,0,1-.93-.93A22.94,22.94,0,0,1,42.09,38.5a6.08,6.08,0,0,0,1.3-2.61,14.24,14.24,0,0,0-2-6.49,8.51,8.51,0,0,0-2.68,2.79,8.79,8.79,0,0,1-1.05,3.56,5.07,5.07,0,0,1-4.57,3,7.55,7.55,0,0,0-2.82.35v1.53c0,.37-.09,1.45-.28,3.49-.28,2.93-.65,7-.65,8.7a.94.94,0,0,1-1.88,0c0-1.83.38-5.9.66-8.88.14-1.55.28-3,.28-3.31V38.7a1.49,1.49,0,0,1,1-1.3,8.58,8.58,0,0,1,3.7-.57c3,0,3.75-4.11,3.75-4.69,0-.9,1-2.07,1.8-2.89s2-1.8,2.89-1.8c.37,0,1.36,0,2.63,3.3a15.53,15.53,0,0,1,1.12,5.14c0,1.22-.72,2.29-1.62,3.65a21.23,21.23,0,0,0-4,13.23A.93.93,0,0,1,38.7,53.7Z"/><path class="cls-3" d="M35,53.7a.93.93,0,0,1-.94-.93,55.69,55.69,0,0,1,.76-9c.06-.4.12-.76.15-1a29.16,29.16,0,0,0-5.73-1.28.94.94,0,0,1,.27-1.86c.07,0,1.69.24,3.35.6,3,.64,4,1.2,4,2.2a13.14,13.14,0,0,1-.2,1.65,52.81,52.81,0,0,0-.74,8.67A.93.93,0,0,1,35,53.7Z"/><path class="cls-4" d="M48.34,35a1,1,0,0,1-.85-.45,15.2,15.2,0,0,1-2.22-7.74,1,1,0,0,1,1-1,10.32,10.32,0,0,1,2.3.29c2.46.61,2.82,2,2.82,2.79,0,2.29-2,5.35-2.22,5.69A1,1,0,0,1,48.34,35ZM47,27.45a20.08,20.08,0,0,0,1.51,4.86,10,10,0,0,0,1.17-3.38C49.7,28.48,48,27.6,47,27.45Z"/></g></g></svg>