<svg xmlns="http://www.w3.org/2000/svg" viewBox="0 0 51.7 61.87"><defs><style>.cls-1{fill:#96e4f4;}.cls-2{fill:#0b3b7a;}</style></defs><g id="Layer_2" data-name="Layer 2"><g id="Layer_1-2" data-name="Layer 1"><path class="cls-1" d="M38,14.67H17.38a1.91,1.91,0,0,1-1.86-2.33L17.14,5A1.91,1.91,0,0,1,19,3.52H36.33A1.9,1.9,0,0,1,38.19,5l1.63,7.32A1.92,1.92,0,0,1,38,14.67Z"/><path class="cls-1" d="M47,52.62C42,51.18,34.53,48.89,32.63,48.3a.49.49,0,0,0-.61.32L28.4,59.48a.5.5,0,0,1-.94,0L23.84,48.62a.49.49,0,0,0-.61-.32c-1.9.59-9.35,2.88-14.39,4.32s-4.79,7.17-4.63,8.81a.49.49,0,0,0,.5.44H51.15a.47.47,0,0,0,.49-.44C51.81,59.79,52,54.05,47,52.62Z"/><path class="cls-2" d="M27.42,5.71H26.27V4.57a1.14,1.14,0,0,0-2.28,0V5.71H22.85a1.15,1.15,0,1,0,0,2.29H24V9.14a1.14,1.14,0,1,0,2.28,0V8h1.15a1.15,1.15,0,0,0,0-2.29Z"/><path class="cls-2" d="M44.52,48.86l-13.68-4v-1a1.14,1.14,0,0,0-2.28,0v1.66l-3.43,9.43L21.7,45.49V43.83a1.14,1.14,0,1,0-2.28,0v1l-13.68,4A8,8,0,0,0,0,56.53v1.73a1.14,1.14,0,0,0,2.28,0V56.53a5.75,5.75,0,0,1,4.1-5.48l13.48-4,4.2,11.56a1.14,1.14,0,0,0,2.14,0l4.21-11.56,13.47,4A5.75,5.75,0,0,1,48,56.53v1.73a1.14,1.14,0,0,0,2.28,0V56.53A8,8,0,0,0,44.52,48.86ZM40,57.12H33.13a1.14,1.14,0,0,0,0,2.28H40a1.14,1.14,0,0,0,0-2.28Z"/><path class="cls-2" d="M25.13,38.85A6.64,6.64,0,0,1,21,37.45a1.15,1.15,0,1,1,1.43-1.79,4.56,4.56,0,0,0,5.42,0,1.15,1.15,0,0,1,1.43,1.79A6.64,6.64,0,0,1,25.13,38.85Z"/><path class="cls-2" d="M20,25.13a1.72,1.72,0,1,0,1.71,1.72A1.72,1.72,0,0,0,20,25.13Zm10.28,0A1.72,1.72,0,1,0,32,26.85,1.72,1.72,0,0,0,30.27,25.13Z"/><path class="cls-2" d="M41,50.15a1.07,1.07,0,0,1-.25,0,1.14,1.14,0,0,1-.86-1.37,101.89,101.89,0,0,0,2.4-22.48,17.12,17.12,0,0,0-5.52-12.56H13.51A17.11,17.11,0,0,0,8,26.27a102.51,102.51,0,0,0,2.39,22.48,1.14,1.14,0,0,1-2.22.52,104.25,104.25,0,0,1-2.46-23,19.43,19.43,0,0,1,6.6-14.56,1.13,1.13,0,0,1,.76-.29H37.19a1.13,1.13,0,0,1,.76.29,19.43,19.43,0,0,1,6.6,14.56,104.87,104.87,0,0,1-2.45,23A1.15,1.15,0,0,1,41,50.15Z"/><path class="cls-2" d="M25.13,45.69a16,16,0,0,1-16-15,4.57,4.57,0,0,1,1.11-9c9.91,0,18.28-4.18,18.28-9.13a1.14,1.14,0,1,1,2.28,0A9.15,9.15,0,0,0,40,21.7a4.57,4.57,0,0,1,1.11,9A16,16,0,0,1,25.13,45.69ZM29.4,16.86C26.4,21.08,19.07,24,10.28,24a2.29,2.29,0,0,0,0,4.57,1.14,1.14,0,0,1,1.14,1.14,13.71,13.71,0,0,0,27.42,0A1.14,1.14,0,0,1,40,28.56,2.29,2.29,0,1,0,40,24,11.42,11.42,0,0,1,29.4,16.86Z"/><path class="cls-2" d="M37.7,13.71H12.57a1.14,1.14,0,0,1-1.15-1.14A28.9,28.9,0,0,1,13.29,2.2h0A3.42,3.42,0,0,1,16.5,0H33.77A3.41,3.41,0,0,1,37,2.2a28.9,28.9,0,0,1,1.87,10.37A1.14,1.14,0,0,1,37.7,13.71Zm-24-2.29h22.8A26,26,0,0,0,34.84,3a1.14,1.14,0,0,0-1.07-.75H16.5A1.16,1.16,0,0,0,15.42,3,26.31,26.31,0,0,0,13.73,11.42Z"/></g></g></svg>