<svg xmlns="http://www.w3.org/2000/svg" viewBox="0 0 64.47 54.13"><defs><style>.cls-1{fill:#96e4f4;}.cls-2{fill:#fff;}.cls-3{fill:#0b3b7a;}</style></defs><g id="Layer_2" data-name="Layer 2"><g id="Layer_1-2" data-name="Layer 1"><rect class="cls-1" x="4.97" y="15.15" width="59.5" height="38.98" rx="3.75"/><polygon class="cls-2" points="27.72 27.53 22.22 27.53 22.22 34.24 27.72 34.24 27.72 39.74 34.43 39.74 34.43 34.24 39.93 34.24 39.93 27.53 34.43 27.53 34.43 22.03 27.72 22.03 27.72 27.53"/><path class="cls-3" d="M57.07,51.7h-52A5.09,5.09,0,0,1,0,46.62V15.15a5.09,5.09,0,0,1,5.07-5.08H38.68V2.65H23.47V6.4a1.33,1.33,0,0,1-2.65,0V1.32A1.32,1.32,0,0,1,22.14,0H40a1.32,1.32,0,0,1,1.32,1.32V11.4A1.32,1.32,0,0,1,40,12.72H5.07a2.43,2.43,0,0,0-2.42,2.43V46.62a2.43,2.43,0,0,0,2.42,2.43h52a2.43,2.43,0,0,0,2.43-2.43V15.15a2.43,2.43,0,0,0-2.43-2.43H45a1.33,1.33,0,0,1,0-2.65H57.07a5.09,5.09,0,0,1,5.08,5.08V46.62A5.09,5.09,0,0,1,57.07,51.7Z"/><path class="cls-3" d="M34.43,41.06H27.72a1.32,1.32,0,0,1-1.32-1.32V35.56H22.22a1.32,1.32,0,0,1-1.32-1.32V27.53a1.32,1.32,0,0,1,1.32-1.32h5.5a1.32,1.32,0,0,1,0,2.64H23.54v4.07h4.18A1.32,1.32,0,0,1,29,34.24v4.18h4.07V34.24a1.32,1.32,0,0,1,1.32-1.32H38.6V28.85H34.43a1.32,1.32,0,0,1-1.32-1.32V23.36H27.72a1.33,1.33,0,0,1,0-2.65h6.71A1.32,1.32,0,0,1,35.75,22v4.18h4.18a1.32,1.32,0,0,1,1.32,1.32v6.71a1.32,1.32,0,0,1-1.32,1.32H35.75v4.18A1.32,1.32,0,0,1,34.43,41.06Z"/></g></g></svg>